<svg width="800" height="600" viewBox="0 0 800 600" xmlns="http://www.w3.org/2000/svg">
  <defs>
    <linearGradient id="oceanGrad" x1="0%" y1="0%" x2="0%" y2="100%">
      <stop offset="0%" style="stop-color:#87CEEB"/>
      <stop offset="50%" style="stop-color:#4682B4"/>
      <stop offset="100%" style="stop-color:#191970"/>
    </linearGradient>
    <radialGradient id="moonGrad" cx="50%" cy="50%" r="50%">
      <stop offset="0%" style="stop-color:#FFFACD"/>
      <stop offset="100%" style="stop-color:#F0E68C"/>
    </radialGradient>
  </defs>
  <rect width="800" height="600" fill="url(#oceanGrad)"/>
  <circle cx="650" cy="80" r="35" fill="url(#moonGrad)"/>
  <path d="M0 400 Q 100 380, 200 400 Q 300 420, 400 400 Q 500 380, 600 400 Q 700 420, 800 400 L 800 600 L 0 600 Z" fill="#000080" opacity="0.8"/>
  <path d="M0 450 Q 150 430, 300 450 Q 450 470, 600 450 Q 700 430, 800 450 L 800 600 L 0 600 Z" fill="#4169E1" opacity="0.6"/>
  <ellipse cx="200" cy="420" rx="40" ry="8" fill="#F0F8FF" opacity="0.7"/>
  <ellipse cx="500" cy="440" rx="60" ry="10" fill="#F0F8FF" opacity="0.5"/>
</svg>